<?xml version="1.0" standalone="no"?>
<!DOCTYPE svg PUBLIC "-//W3C//DTD SVG 20010904//EN"
 "http://www.w3.org/TR/2001/REC-SVG-20010904/DTD/svg10.dtd">
<svg version="1.0" xmlns="http://www.w3.org/2000/svg"
 width="356.000000pt" height="356.000000pt" viewBox="0 0 356.000000 356.000000"
 preserveAspectRatio="xMidYMid meet">
<metadata>
Created by potrace 1.11, written by Peter Selinger 2001-2013
</metadata>
<g transform="translate(0.000000,356.000000) scale(0.100000,-0.100000)"
fill="#000000" stroke="none">
<path d="M437 2700 c-58 -150 -96 -313 -116 -500 -45 -427 -5 -730 132 -993
89 -171 187 -270 337 -341 110 -52 179 -67 326 -73 161 -7 247 10 367 70 146
73 272 225 336 407 l12 35 35 -66 c133 -250 363 -379 676 -379 127 0 212 17
291 56 216 109 353 331 401 654 42 284 27 524 -56 898 l-31 142 -373 0 -374 0
0 -230 0 -230 174 0 c149 0 175 -2 180 -16 3 -8 11 -69 17 -133 13 -131 2
-297 -26 -386 -52 -171 -171 -256 -338 -242 -128 11 -214 72 -277 198 -58 113
-72 192 -77 417 l-5 202 -238 0 -238 0 -5 -237 c-4 -199 -8 -251 -25 -314 -44
-163 -122 -268 -230 -310 -81 -32 -217 -32 -288 0 -176 77 -263 336 -235 699
13 171 39 306 86 450 l33 104 -41 18 c-223 98 -392 170 -397 170 -3 0 -18 -31
-33 -70z"/>
</g>
</svg>
